<svg xmlns="http://www.w3.org/2000/svg" viewBox="0 0 150 150"><path d="M95.65,44.652a102.7485,102.7485,0,0,1,1.6958,15.9538c-.2344,5.05-1.4461,8.9344-4.6025,12.8174a12.3515,12.3515,0,0,0-2.59,9.2308l.178,1.5258A4.0433,4.0433,0,0,0,93.22,87.5932l18.5551,5.3877a17.5086,17.5086,0,0,1,7.1935,3.7752,21.422,21.422,0,0,1,7.34,12.273l4.34,32.9166" style="fill:none;stroke:#29023e;stroke-linecap:round;stroke-linejoin:round;stroke-width:5px"/><path d="M51.1306,75.86a21.889,21.889,0,0,1-22.5225-9.513c5.8063-.6983,9.4729-3.868,11.8659-8.3737,3.2806-6.1767,3.6314-12.6915,4.4271-19.5384.5645-4.8565,1.3769-9.7511,3.374-14.2138C52.812,14.0814,64.165,8.0543,75,8.0543s22.1882,6.0271,26.7251,16.1666c1.9969,4.4627,2.8094,9.3573,3.374,14.2138.7958,6.8469,1.1465,13.3617,4.4269,19.5384,2.3931,4.5057,6.06,7.6754,11.8661,8.3737A21.889,21.889,0,0,1,98.87,75.86" style="fill:none;stroke:#29023e;stroke-linecap:round;stroke-linejoin:round;stroke-width:5px"/><polyline points="57.913 87.063 75 99.821 92.087 87.063" style="fill:none;stroke:#29023e;stroke-linecap:round;stroke-linejoin:round;stroke-width:5px"/><path d="M19.3512,141.9457l4.34-32.9166a21.422,21.422,0,0,1,7.34-12.273,17.5086,17.5086,0,0,1,7.1935-3.7752L56.78,87.5932A4.0436,4.0436,0,0,0,59.6685,84.18l.178-1.5256a12.353,12.353,0,0,0-2.59-9.2311C54.1,69.54,52.8885,65.6557,52.6541,60.6058c-.0457-5.2049,1.1254-12.9085,2.2013-18.8444a16.49,16.49,0,0,1,9.58-12.1476h0a9.8986,9.8986,0,0,1,11.6471,2.6788l.0593.0727c1.9662,2.4274,3.4235,5.2607,5.5973,7.504a16.0356,16.0356,0,0,0,13.9188,4.5756" style="fill:none;stroke:#29023e;stroke-linecap:round;stroke-linejoin:round;stroke-width:5px"/><line x1="75.0001" y1="99.8209" x2="75.0001" y2="141.9457" style="fill:none;stroke:#29023e;stroke-linecap:round;stroke-linejoin:round;stroke-width:5px"/><path d="M75,16.5046c-7.6415,0-15.1678,4.1592-18.4437,10.0407a31.3777,31.3777,0,0,1,3.5718-2.0266,22.1885,22.1885,0,0,1,9.25-2.2771,15.2753,15.2753,0,0,1,9.04,2.7243c2.779,2.0105,4.6525,5.0152,7.0932,7.4252A21.6374,21.6374,0,0,0,96.548,38.124a37.4607,37.4607,0,0,0-2.5355-10.45C91.1161,21.2014,83.1212,16.5046,75,16.5046Z" style="fill:#00cdb8"/></svg>