<svg xmlns="http://www.w3.org/2000/svg" viewBox="0 0 150 150"><path d="M75,5.58A69.42,69.42,0,1,0,144.42,75,69.42,69.42,0,0,0,75,5.58" style="fill:#828894"/><path d="M79.252,104.5748a6.4321,6.4321,0,0,1-4.4811,1.38H40.5317q-4.1208,0-5.9268-1.8266T32.8,98.2239V51.41a10.452,10.452,0,0,1,.8164-4.4527,5.0513,5.0513,0,0,1,2.5564-2.5147,10.8386,10.8386,0,0,1,4.4471-.7879H74.3025a6.5787,6.5787,0,0,1,4.5325,1.3428,4.5166,4.5166,0,0,1,1.4822,3.5149,4.57,4.57,0,0,1-1.4822,3.5582,6.5837,6.5837,0,0,1-4.5325,1.3421H45.56V68.8H71.3624a6.1438,6.1438,0,0,1,4.2517,1.2779A4.3439,4.3439,0,0,1,77.0177,73.45a4.507,4.507,0,0,1-1.3829,3.4143,6,6,0,0,1-4.2724,1.3189H45.56V95.822H74.7709a6.4374,6.4374,0,0,1,4.4811,1.38,4.745,4.745,0,0,1,1.5084,3.675,4.6425,4.6425,0,0,1-1.5084,3.59" style="fill:#fff"/><path d="M114.8662,106.4286c-5.8773,2.79-12.1633-6.8981-12.1633-6.8981S91.1739,85.09,87.28,80.1734c-3.1018-3.9167-5.3176-8.9015-1.175-14l16.1305-19.8708a22.708,22.708,0,0,1,3.037-2.7608,5.6345,5.6345,0,0,1,3.3346-.8921,6.1277,6.1277,0,0,1,4.3971,1.5924,5.1584,5.1584,0,0,1,1.6779,3.8874q0,2.7614-2.8459,5.48L95.9887,71.72l18.1835,21.7362c2.5359,3.5736,6.4962,10.2176.694,12.9724" style="fill:#fff"/><path d="M74.8191,95.8216l-29.2737-.02.0123-17.6393L71.36,78.18a6.001,6.001,0,0,0,4.2734-1.3163,4.5075,4.5075,0,0,0,1.3849-3.4129,4.3434,4.3434,0,0,0-1.4013-3.373,6.1449,6.1449,0,0,0-4.25-1.28l-25.8024-.018.0108-15.3875,28.5068.02a6.4927,6.4927,0,0,0,4.4963-1.339,4.5861,4.5861,0,0,0,1.473-3.5569,4.535,4.535,0,0,0-1.468-3.5164,6.4892,6.4892,0,0,0-4.4944-1.3456L40.5561,43.63a10.6416,10.6416,0,0,0-4.3993.7827,5.0138,5.0138,0,0,0-2.53,2.5063,10.4929,10.4929,0,0,0-.8107,4.44l-.0326,46.8317q-.0028,4.08,1.8017,5.9085t5.9275,1.8315l34.2364.0239a6.4343,6.4343,0,0,0,4.4824-1.3773,4.6418,4.6418,0,0,0,1.5105-3.5887,4.7445,4.7445,0,0,0-1.5054-3.676,6.4386,6.4386,0,0,0-4.4805-1.3835" style="fill:none"/><path d="M95.9909,71.7343l15.86-18.1q2.847-2.7159,2.85-5.4778a5.1591,5.1591,0,0,0-1.6753-3.8886,6.1278,6.1278,0,0,0-4.3959-1.5958,5.6342,5.6342,0,0,0-3.3352.89,22.69,22.69,0,0,0-3.0389,2.759l-16.1444,19.86c-4.1462,5.096-1.9339,10.0824,1.1653,14.0008,3.89,4.9192,15.4092,19.3682,15.4092,19.3682s6.2792,9.6922,12.1584,6.9063c5.8042-2.75,1.8486-9.3975-.6849-12.9729Z" style="fill:none"/></svg>