<svg xmlns="http://www.w3.org/2000/svg" viewBox="0 0 600 400"><path d="M187.1,156.1452H161.9v13.56h23.2029a5.5263,5.5263,0,0,1,3.8233,1.1488,3.9065,3.9065,0,0,1,1.2618,3.0322,4.0529,4.0529,0,0,1-1.243,3.07,5.3952,5.3952,0,0,1-3.8421,1.1865H161.9V193.85H187.966a5.7078,5.7078,0,0,1,3.9738,1.2242,4.2062,4.2062,0,0,1,1.3372,3.2582,4.1158,4.1158,0,0,1-1.3372,3.1829,5.704,5.704,0,0,1-3.9738,1.2242H157.5685q-3.654,0-5.2545-1.62t-1.6009-5.2357V154.3748a9.3059,9.3059,0,0,1,.7157-3.9362,4.4434,4.4434,0,0,1,2.2412-2.2223,9.4233,9.4233,0,0,1,3.8985-.6969H187.1a5.7387,5.7387,0,0,1,3.9739,1.1865,4.01,4.01,0,0,1,1.2995,3.1076,4.0541,4.0541,0,0,1-1.2995,3.1452A5.7387,5.7387,0,0,1,187.1,156.1452Z" style="fill:#400094"/><path d="M222.5292,153.2825l21.508,32.5444V152.9812a7.21,7.21,0,0,1,1.3748-4.8026,4.6394,4.6394,0,0,1,3.71-1.6009,4.7846,4.7846,0,0,1,3.8044,1.6009,7.1472,7.1472,0,0,1,1.3937,4.8026v43.43q0,7.27-6.0268,7.27a7.99,7.99,0,0,1-2.712-.4332,6.8725,6.8725,0,0,1-2.26-1.3749,13.3418,13.3418,0,0,1-1.9587-2.2035q-.904-1.2615-1.808-2.58l-20.9807-32.1677v32.3561a6.9028,6.9028,0,0,1-1.469,4.7837,4.8588,4.8588,0,0,1-3.7667,1.62,4.8012,4.8012,0,0,1-3.8044-1.6386,7.0346,7.0346,0,0,1-1.4313-4.7648V154.6762a12.0574,12.0574,0,0,1,.6026-4.2564,6.0708,6.0708,0,0,1,2.3731-2.7685,6.458,6.458,0,0,1,3.5784-1.0736,5.8632,5.8632,0,0,1,4.4635,1.8081,13.6413,13.6413,0,0,1,1.6574,2.147Q221.6252,151.8519,222.5292,153.2825Z" style="fill:#400094"/><path d="M280.91,153.3578v19.361l21.96-22.9017a20.1305,20.1305,0,0,1,2.6932-2.4483,4.9958,4.9958,0,0,1,2.9569-.7911,5.4307,5.4307,0,0,1,3.8985,1.4126,4.5723,4.5723,0,0,1,1.4879,3.4465q0,2.449-2.5237,4.8591L297.7853,169.178l15.6695,22.45a28.1326,28.1326,0,0,1,2.4861,4.0869,7.9512,7.9512,0,0,1,.8287,3.4088,4.246,4.246,0,0,1-1.45,3.2018,5.5337,5.5337,0,0,1-3.9362,1.356,6.6414,6.6414,0,0,1-3.8044-.9982,8.56,8.56,0,0,1-2.4861-2.6555q-1.017-1.657-1.808-3.0134l-13.2212-20.34L280.91,185.45v11.4131q0,3.466-1.582,5.1416a5.3462,5.3462,0,0,1-4.0681,1.6762,5.4667,5.4667,0,0,1-2.75-.7534,5.268,5.268,0,0,1-2.034-2.034,6.6156,6.6156,0,0,1-.64-2.4484q-.1131-1.3929-.113-4.03V153.3578a7.5172,7.5172,0,0,1,1.4878-5.085,5.11,5.11,0,0,1,4.0492-1.6951,5.3324,5.3324,0,0,1,4.0869,1.6762A7.2649,7.2649,0,0,1,280.91,153.3578Z" style="fill:#400094"/><path d="M365.4522,156.1452H340.2529v13.56h23.2029a5.5263,5.5263,0,0,1,3.8233,1.1488,3.9065,3.9065,0,0,1,1.2618,3.0322,4.0529,4.0529,0,0,1-1.243,3.07,5.3952,5.3952,0,0,1-3.8421,1.1865H340.2529V193.85h26.0656a5.7079,5.7079,0,0,1,3.9739,1.2242,4.2062,4.2062,0,0,1,1.3372,3.2582,4.1158,4.1158,0,0,1-1.3372,3.1829,5.7041,5.7041,0,0,1-3.9739,1.2242H335.9211q-3.654,0-5.2545-1.62t-1.6009-5.2357V154.3748a9.3059,9.3059,0,0,1,.7157-3.9362,4.4434,4.4434,0,0,1,2.2412-2.2223,9.4233,9.4233,0,0,1,3.8985-.6969h29.5311a5.7387,5.7387,0,0,1,3.9739,1.1865,4.01,4.01,0,0,1,1.2995,3.1076,4.0541,4.0541,0,0,1-1.2995,3.1452A5.7387,5.7387,0,0,1,365.4522,156.1452Z" style="fill:#400094"/><path d="M397.6518,153.3578v40.1909h22.6757a5.9793,5.9793,0,0,1,4.1622,1.3184,4.2923,4.2923,0,0,1,1.45,3.3147,4.1854,4.1854,0,0,1-1.4314,3.2958,6.14,6.14,0,0,1-4.181,1.2619H393.32q-3.654,0-5.2546-1.62t-1.6008-5.2357V153.3578a7.3927,7.3927,0,0,1,1.5255-5.085,5.1389,5.1389,0,0,1,4.0116-1.6951,5.3326,5.3326,0,0,1,4.0869,1.6762A7.2653,7.2653,0,0,1,397.6518,153.3578Z" style="fill:#400094"/><path d="M74.4037,124.1166a49.8055,49.8055,0,1,0,49.8054,49.8054A49.8054,49.8054,0,0,0,74.4037,124.1166Zm3.0506,71.0474a4.6146,4.6146,0,0,1-3.2151.99H49.6437q-2.9567,0-4.2521-1.3105a5.8553,5.8553,0,0,1-1.2952-4.2364V157.0209a7.53,7.53,0,0,1,.5792-3.1848,3.5959,3.5959,0,0,1,1.8134-1.7985,7.6312,7.6312,0,0,1,3.1547-.5637H73.538a4.6418,4.6418,0,0,1,3.2155.96,3.2441,3.2441,0,0,1,1.0514,2.5142,3.2819,3.2819,0,0,1-1.0514,2.5451,4.6453,4.6453,0,0,1-3.2155.96H53.1485v10.972H71.9227a4.47,4.47,0,0,1,3.0934.93,3.16,3.16,0,0,1,1.0214,2.4533,3.28,3.28,0,0,1-1.0062,2.4841,4.3662,4.3662,0,0,1-3.1086.96H53.1485v12.7092H74.2392a4.6185,4.6185,0,0,1,3.2151.99,3.4037,3.4037,0,0,1,1.0822,2.6365A3.33,3.33,0,0,1,77.4543,195.164Zm25.5514,1.3066c-4.2165,2.0017-8.7264-4.9488-8.7264-4.9488s-8.2716-10.3607-11.0651-13.8878c-2.2253-2.81-3.8153-6.3864-.8432-10.0446l11.5729-14.2563a16.2752,16.2752,0,0,1,2.1792-1.9811,4.0422,4.0422,0,0,1,2.3923-.64,4.3956,4.3956,0,0,1,3.1546,1.1427,3.7014,3.7014,0,0,1,1.2039,2.7889,5.55,5.55,0,0,1-2.042,3.9317l-11.37,12.9936,13.0459,15.5945C104.3273,189.7277,107.1687,194.4943,103.0057,196.4706Z" style="fill:#400094"/><path d="M74.2392,188.9616H53.1485V176.2524H71.9227a4.3662,4.3662,0,0,0,3.1086-.96,3.28,3.28,0,0,0,1.0062-2.4841,3.16,3.16,0,0,0-1.0214-2.4533,4.47,4.47,0,0,0-3.0934-.93H53.1485v-10.972h20.39a4.6453,4.6453,0,0,0,3.2155-.96,3.2819,3.2819,0,0,0,1.0514-2.5451,3.2441,3.2441,0,0,0-1.0514-2.5142,4.6418,4.6418,0,0,0-3.2155-.96H49.6437a7.6312,7.6312,0,0,0-3.1547.5637,3.5959,3.5959,0,0,0-1.8134,1.7985,7.53,7.53,0,0,0-.5792,3.1848v33.5866a5.8553,5.8553,0,0,0,1.2952,4.2364q1.2953,1.3107,4.2521,1.3105H74.2392a4.6146,4.6146,0,0,0,3.2151-.99,3.33,3.33,0,0,0,1.0822-2.5755,3.4037,3.4037,0,0,0-1.0822-2.6365A4.6185,4.6185,0,0,0,74.2392,188.9616Z" style="fill:#fff"/><path d="M89.4622,171.5689l11.37-12.9936a5.55,5.55,0,0,0,2.042-3.9317,3.7014,3.7014,0,0,0-1.2039-2.7889,4.3956,4.3956,0,0,0-3.1546-1.1427,4.0422,4.0422,0,0,0-2.3923.64,16.2752,16.2752,0,0,0-2.1792,1.9811L82.371,167.5894c-2.9721,3.6582-1.3821,7.2346.8432,10.0446,2.7935,3.5271,11.0651,13.8878,11.0651,13.8878s4.51,6.95,8.7264,4.9488c4.163-1.9763,1.3216-6.7429-.4976-9.3072Z" style="fill:#fff"/><path d="M178.905,273.4774a11.839,11.839,0,0,1-4.5971,1.8463,29.0456,29.0456,0,0,1-5.7234.56,20.5142,20.5142,0,0,1-6.7394-1.1,14.396,14.396,0,0,1-5.61-3.5528,17.4393,17.4393,0,0,1-3.8633-6.3718,27.712,27.712,0,0,1-1.4387-9.5026,25.7465,25.7465,0,0,1,1.6081-9.7278,17.639,17.639,0,0,1,4.173-6.316,15.4,15.4,0,0,1,5.7234-3.44,20.0359,20.0359,0,0,1,6.3167-1.0436,30.8755,30.8755,0,0,1,5.7233.4509,21.028,21.028,0,0,1,3.8633,1.0718l-1.5227,6.5418a11.2009,11.2009,0,0,0-3.073-.9025,28.0806,28.0806,0,0,0-4.3149-.2822,9.4136,9.4136,0,0,0-7.5283,3.3346q-2.8479,3.3342-2.8472,10.3411a21.4437,21.4437,0,0,0,.676,5.5664,11.991,11.991,0,0,0,2.0583,4.2942,9.4859,9.4859,0,0,0,3.4406,2.7694,10.8742,10.8742,0,0,0,4.7651.9892,15.5565,15.5565,0,0,0,4.2859-.508,12.57,12.57,0,0,0,3.0455-1.2969Z" style="fill:#00cdb8"/><path d="M197.5137,255.3561q0-9.8676,4.3424-15.1978t12.4077-5.3295a17.39,17.39,0,0,1,7.3865,1.4662,13.9393,13.9393,0,0,1,5.2456,4.1731,18.2436,18.2436,0,0,1,3.1,6.4854,32.345,32.345,0,0,1,1.0161,8.4026q0,9.87-4.3713,15.1977t-12.3774,5.33a17.54,17.54,0,0,1-7.4443-1.4663,13.6811,13.6811,0,0,1-5.2167-4.1731,18.5025,18.5025,0,0,1-3.073-6.4854A32.3333,32.3333,0,0,1,197.5137,255.3561Zm8.1217,0a27.8439,27.8439,0,0,0,.5067,5.4982,14.1738,14.1738,0,0,0,1.5517,4.3142,7.8768,7.8768,0,0,0,2.6778,2.82,7.2321,7.2321,0,0,0,3.8922,1.0153,7.33,7.33,0,0,0,6.3718-3.2148q2.2552-3.2145,2.2552-10.4326a28.2658,28.2658,0,0,0-.4791-5.3571,14.9562,14.9562,0,0,0-1.4938-4.3424,7.8,7.8,0,0,0-2.65-2.9044,7.9381,7.9381,0,0,0-10.3769,2.2559Q205.6355,248.3072,205.6354,255.3561Z" style="fill:#00cdb8"/><path d="M263.2694,254.51l-3.1019-6.2031h-.2822l.9018,6.2031v20.5838h-7.33V235.3361h5.6394L274.04,256.3715l2.989,6.0338h.2822l-.9031-6.0338V235.6184H283.74V275.376H278.1Z" style="fill:#00cdb8"/><path d="M317.2384,254.51l-3.1019-6.2031h-.2823l.9018,6.2031v20.5838h-7.33V235.3361h5.6393l14.9437,21.0354,2.9891,6.0338h.2822l-.9032-6.0338V235.6184h7.3315V275.376h-5.6394Z" style="fill:#00cdb8"/><path d="M361.3935,235.6184h23.4028v6.88H369.1187V251.69h14.2678v6.88H369.1187v9.6438h15.96v6.88h-23.685Z" style="fill:#00cdb8"/><path d="M434.4793,273.4774a11.839,11.839,0,0,1-4.5971,1.8463,29.0456,29.0456,0,0,1-5.7234.56,20.5142,20.5142,0,0,1-6.7394-1.1,14.396,14.396,0,0,1-5.61-3.5528,17.4393,17.4393,0,0,1-3.8633-6.3718,27.712,27.712,0,0,1-1.4387-9.5026,25.7465,25.7465,0,0,1,1.6081-9.7278,17.639,17.639,0,0,1,4.173-6.316,15.4,15.4,0,0,1,5.7234-3.44,20.0359,20.0359,0,0,1,6.3167-1.0436,30.8755,30.8755,0,0,1,5.7233.4509,21.028,21.028,0,0,1,3.8633,1.0718l-1.5227,6.5418a11.2009,11.2009,0,0,0-3.073-.9025,28.0806,28.0806,0,0,0-4.3149-.2822,9.4136,9.4136,0,0,0-7.5283,3.3346q-2.8479,3.3342-2.8472,10.3411a21.4437,21.4437,0,0,0,.676,5.5664,11.991,11.991,0,0,0,2.0583,4.2942,9.4859,9.4859,0,0,0,3.4406,2.7694,10.8742,10.8742,0,0,0,4.7651.9892,15.5565,15.5565,0,0,0,4.2859-.508,12.57,12.57,0,0,0,3.0455-1.2969Z" style="fill:#00cdb8"/><path d="M481.7364,242.4982H470.2319v32.5956h-7.7266V242.4982h-11.56v-6.88h30.7907Z" style="fill:#00cdb8"/><path d="M519.3518,260.355a4.9044,4.9044,0,0,1-.2265,1.4452,4.7962,4.7962,0,0,1-.68,1.3744,4.5364,4.5364,0,0,1-1.1617,1.1192,5.3919,5.3919,0,0,1-1.6716.7367v.1137a6.8946,6.8946,0,0,1,1.629.4814,4.4391,4.4391,0,0,1,1.3744.9353,4.61,4.61,0,0,1,.9633,1.4451,5.0378,5.0378,0,0,1,.3686,2.0117,5.2647,5.2647,0,0,1-.6377,2.6495,5.4455,5.4455,0,0,1-1.6717,1.8279,7.3884,7.3884,0,0,1-2.3661,1.0485,10.9667,10.9667,0,0,1-2.7205.34h-1.1334q-.6519,0-1.36-.0422t-1.4167-.1133a8.1014,8.1014,0,0,1-1.2466-.2127V255.9913q1.0475-.17,2.4368-.2833,1.3878-.1129,3.0318-.1133a14.2044,14.2044,0,0,1,2.2529.1843,6.25,6.25,0,0,1,2.0828.7084,4.3889,4.3889,0,0,1,1.5442,1.4593A4.3376,4.3376,0,0,1,519.3518,260.355Zm-8.1328,4.1941q.4821,0,1.1622-.0284t1.1333-.0849a7.7281,7.7281,0,0,0,1.2751-.5528,5.1479,5.1479,0,0,0,1.0627-.7652,3.2718,3.2718,0,0,0,.7367-1.02,2.9615,2.9615,0,0,0,.2692-1.2608,3.0378,3.0378,0,0,0-.3544-1.5442,2.77,2.77,0,0,0-.9491-.9778,4.1282,4.1282,0,0,0-1.36-.5241,7.8024,7.8024,0,0,0-1.5584-.1559q-.9353,0-1.7142.0426a8.1134,8.1134,0,0,0-1.176.1275v6.7441Zm1.5588,9.2941a7.2155,7.2155,0,0,0,1.7568-.2123,4.3692,4.3692,0,0,0,1.502-.68,3.5338,3.5338,0,0,0,1.0343-1.1476,3.244,3.244,0,0,0,.3824-1.6152,3.3448,3.3448,0,0,0-.4677-1.87,3.2678,3.2678,0,0,0-1.2186-1.1049,5.2758,5.2758,0,0,0-1.6858-.5387,12.53,12.53,0,0,0-1.87-.1417h-2.4652v7.1127a2.9635,2.9635,0,0,0,.5667.0848q.368.0288.7932.0569t.8784.0422C512.2864,273.839,512.5509,273.8432,512.7778,273.8432Z" style="fill:#828894"/><path d="M526.7762,255.8212h10.796v2.0971h-8.4441v6.4891h7.7358v2.0966h-7.7358V273.56h8.5858v2.097H526.7762Z" style="fill:#828894"/><path d="M557.6059,257.9183h-6.1774v17.7386h-2.3519V257.9183H542.9v-2.0971h14.7063Z" style="fill:#828894"/><path d="M570.8779,270.1594h-7.2746l-1.9734,5.4975h-2.352l7.5093-20.1474h1.0769l7.5377,20.1474h-2.4937Zm-6.5129-2.04h5.808l-2.1991-6.0353-.7049-3.0039h-.0284l-.7049,3.06Z" style="fill:#828894"/></svg>