<svg xmlns="http://www.w3.org/2000/svg" viewBox="0 0 150 150"><line x1="96.776" y1="69.8206" x2="53.1869" y2="69.8206" style="fill:none;stroke:#29023e;stroke-linecap:round;stroke-linejoin:round;stroke-width:5px"/><line x1="89.636" y1="59.689" x2="60.327" y2="59.689" style="fill:none;stroke:#29023e;stroke-linecap:round;stroke-linejoin:round;stroke-width:5px"/><path d="M26.1184,91.0579V27.3069a5.0376,5.0376,0,0,1,5.0376-5.0377h87.6879a5.0376,5.0376,0,0,1,5.0377,5.0377v63.751" style="fill:none;stroke:#29023e;stroke-linecap:round;stroke-linejoin:round;stroke-width:5px"/><path d="M34.5929,22.2692V13.0115a3.9257,3.9257,0,0,1,3.9257-3.9258h72.9626a3.9258,3.9258,0,0,1,3.9259,3.9258v9.2577" style="fill:none;stroke:#29023e;stroke-linecap:round;stroke-linejoin:round;stroke-width:5px"/><line x1="9.6854" y1="91.0579" x2="26.1184" y2="49.5573" style="fill:none;stroke:#29023e;stroke-linecap:round;stroke-linejoin:round;stroke-width:5px"/><line x1="140.3146" y1="91.0579" x2="123.8816" y2="49.5573" style="fill:none;stroke:#29023e;stroke-linecap:round;stroke-linejoin:round;stroke-width:5px"/><path d="M109.0434,99.046l-2.63,9.0736a12.1237,12.1237,0,0,1-11.6443,8.7485H55.2309A12.1237,12.1237,0,0,1,43.5866,108.12l-2.63-9.0736a11.07,11.07,0,0,0-10.6322-7.9881H9.6854v39.04a10.8161,10.8161,0,0,0,10.8161,10.8162H129.4986a10.816,10.816,0,0,0,10.816-10.816v-39.04h-20.639A11.07,11.07,0,0,0,109.0434,99.046Z" style="fill:none;stroke:#29023e;stroke-linecap:round;stroke-linejoin:round;stroke-width:5px"/><path d="M70.2312,28.5967l2.7991.97a72.5073,72.5073,0,0,1,42.4107,38.84l2.1135,4.7132V28.5967Z" style="fill:#00cdb8"/></svg>