<svg xmlns="http://www.w3.org/2000/svg" viewBox="0 0 150 150"><circle cx="51.2908" cy="95.2359" r="45.2908" style="fill:none;stroke:#29023e;stroke-linecap:round;stroke-linejoin:round;stroke-width:5px"/><path d="M51.2908,119.4979A24.2621,24.2621,0,1,0,27.238,92.0322" style="fill:none;stroke:#00cdb8;stroke-linecap:round;stroke-linejoin:round;stroke-width:7px"/><polyline points="34.097 91.158 25.123 96.287 19.995 87.313" style="fill:none;stroke:#00cdb8;stroke-linecap:round;stroke-linejoin:round;stroke-width:7px"/><path d="M101.1836,9.03h-26.48a2.085,2.085,0,0,0-2.0848,2.085V22.4841A4.4008,4.4008,0,0,0,77.02,26.8849h.0665a4.5088,4.5088,0,0,0,4.1174-2.8474,7.3181,7.3181,0,0,1,13.48,0,4.5084,4.5084,0,0,0,4.1173,2.8474h.0665a4.4008,4.4008,0,0,0,4.4006-4.4008v-11.37A2.0846,2.0846,0,0,0,101.1836,9.03Z" style="fill:none;stroke:#29023e;stroke-linecap:round;stroke-linejoin:round;stroke-width:5px"/><path d="M134.3092,28.3743H144v90.2328a21.92,21.92,0,0,1-21.92,21.92l-43.7035.4433" style="fill:none;stroke:#29023e;stroke-linecap:round;stroke-linejoin:round;stroke-width:5px"/><path d="M94.1215,129.1614l20.4-.3836A6.0788,6.0788,0,0,0,120.6,122.699v-7.63h7.63a6.0788,6.0788,0,0,0,6.0788-6.0787V17.03H110.3258" style="fill:none;stroke:#29023e;stroke-linecap:round;stroke-linejoin:round;stroke-width:5px"/><polyline points="65.561 17.03 41.578 17.03 41.578 40.597" style="fill:none;stroke:#29023e;stroke-linecap:round;stroke-linejoin:round;stroke-width:5px"/></svg>