<svg xmlns="http://www.w3.org/2000/svg" viewBox="0 0 150 150"><rect x="23.9411" y="7" width="93.6085" height="128.6391" style="fill:none;stroke:#29023e;stroke-linecap:round;stroke-linejoin:round;stroke-width:5px"/><polyline points="119.106 14.361 126.059 14.361 126.059 143 32.45 143 32.45 135.304" style="fill:none;stroke:#29023e;stroke-linecap:round;stroke-linejoin:round;stroke-width:5px"/><line x1="38.0812" y1="103.6945" x2="103.4095" y2="103.6945" style="fill:none;stroke:#29023e;stroke-linecap:round;stroke-linejoin:round;stroke-width:5px"/><line x1="38.0812" y1="115.8928" x2="103.4095" y2="115.8928" style="fill:none;stroke:#29023e;stroke-linecap:round;stroke-linejoin:round;stroke-width:5px"/><path d="M81.0079,70.6831a7.9939,7.9939,0,0,0-2.4265-5.8649q-2.4279-2.4272-8.0439-4.3367-7.7208-2.3323-11.6557-6.23t-3.9352-10.394a14.6414,14.6414,0,0,1,3.6287-10.2782,15.6187,15.6187,0,0,1,9.9764-4.7776V20.3573h6.0374v8.4808a14.6123,14.6123,0,0,1,9.9166,5.2353q3.5314,4.3962,3.5343,11.77h-7.49a12.249,12.249,0,0,0-2.407-7.8708,8.044,8.044,0,0,0-6.651-3.0207q-4.5113,0-6.7637,2.3508a8.9162,8.9162,0,0,0-2.2547,6.4386,8.0376,8.0376,0,0,0,2.3311,6.0012q2.33,2.2929,8.368,4.3567,7.7985,2.5212,11.581,6.2858,3.78,3.7653,3.7833,10.2219,0,6.5745-3.9391,10.4538-3.933,3.8792-10.8117,4.602V93H67.7858V85.7027A17.4936,17.4936,0,0,1,57.0091,80.905q-4.203-4.1031-4.05-12.0552l.0764-.1921h7.2608q0,5.8879,2.9808,8.3881a10.8987,10.8987,0,0,0,7.2608,2.5031q4.9284,0,7.6987-2.3506A8.08,8.08,0,0,0,81.0079,70.6831Z" style="fill:#00cdb8"/></svg>