<svg xmlns="http://www.w3.org/2000/svg" viewBox="0 0 150 150"><circle cx="75.0002" cy="75" r="68.0437" transform="translate(-4.0328 4.2623) rotate(-3.1701)" style="fill:none;stroke:#29023e;stroke-linecap:round;stroke-linejoin:round;stroke-width:5px"/><line x1="92.9263" y1="92.4191" x2="92.9263" y2="122.0912" style="fill:none;stroke:#29023e;stroke-linecap:round;stroke-linejoin:round;stroke-width:5px"/><line x1="56.583" y1="92.4191" x2="56.583" y2="122.0912" style="fill:none;stroke:#29023e;stroke-linecap:round;stroke-linejoin:round;stroke-width:5px"/><circle cx="75" cy="41.161" r="16.8704" transform="translate(-10.0426 31.8344) rotate(-22.5)" style="fill:none;stroke:#29023e;stroke-linecap:round;stroke-linejoin:round;stroke-width:5px"/><path d="M42.8862,122.0912V79.4705a10.973,10.973,0,0,1,10.973-10.973H96.1408a10.9729,10.9729,0,0,1,10.9729,10.973v38.502" style="fill:none;stroke:#29023e;stroke-linecap:round;stroke-linejoin:round;stroke-width:5px"/><path d="M96.14,76.0424H53.8592a3.428,3.428,0,0,0-3.428,3.428v8.3265h0a23.7813,23.7813,0,0,1,13.67-4.3214H85.8991a23.7809,23.7809,0,0,1,13.67,4.3214h0V79.471A3.4286,3.4286,0,0,0,96.14,76.0424Z" style="fill:#00cdb8"/></svg>