<?xml version="1.0" encoding="utf-8"?>
<!-- Generator: Adobe Illustrator 23.0.3, SVG Export Plug-In . SVG Version: 6.00 Build 0)  -->
<svg version="1.1" id="enkel-app-icon-circle" xmlns="http://www.w3.org/2000/svg" xmlns:xlink="http://www.w3.org/1999/xlink"
	 x="0px" y="0px" viewBox="0 0 1024 1024" style="enable-background:new 0 0 1024 1024;" xml:space="preserve">
<style type="text/css">
	.st0{fill:#FFFFFF;}
	.st1{fill:#4723AB;}
</style>
<g>
	<path class="st0" d="M542.8,673.8c-7.3-6.7-18.1-10-32.5-10h-213V535.5h189.6c14.2,0,24.6-3.2,31.4-9.7
		c6.8-6.4,10.2-14.8,10.2-25.1c0-10.3-3.4-18.5-10.3-24.8c-6.9-6.3-17.3-9.4-31.2-9.4H297.4V355.8h205.9c14.5,0,25.4-3.2,32.4-9.7
		c7.1-6.5,10.7-15.1,10.7-25.7c0-10.5-3.6-18.9-10.7-25.4c-7.1-6.5-17.9-9.7-32.4-9.7H262c-12.9,0-23.5,1.9-31.8,5.7
		c-8.3,3.8-14.4,9.9-18.3,18.2c-3.9,8.3-5.9,19-5.9,32.2v339.1c0,19.7,4.4,34,13.1,42.8c8.7,8.8,23,13.2,42.9,13.2h248.3
		c14.4,0,25.2-3.3,32.5-10c7.3-6.7,10.9-15.3,10.9-26C553.7,689.4,550.1,680.5,542.8,673.8z"/>
	<path class="st0" d="M664,488.2L778.8,357c13.7-13.1,20.6-26.4,20.6-39.7c0-11.1-4-20.5-12.2-28.2c-8.1-7.7-18.7-11.5-31.8-11.5
		c-10,0-18.1,2.2-24.1,6.5c-6.1,4.3-13.4,11-22,20L592.4,448c-30,36.9-14,73.1,8.5,101.4c28.2,35.6,111.7,140.2,111.7,140.2
		s34.8,53.6,72,53.6c5.3,0,10.7-1.1,16.1-3.6c42-19.9,13.4-68.1-5-94L664,488.2z"/>
	<path class="st1" d="M512,9.1C234.2,9.1,9.1,234.2,9.1,512c0,277.8,225.1,502.9,502.9,502.9c277.7,0,502.9-225.1,502.9-502.9
		C1014.9,234.2,789.7,9.1,512,9.1z M542.8,726.5c-7.3,6.7-18.1,10-32.5,10H262c-19.9,0-34.2-4.4-42.9-13.2
		c-8.7-8.8-13.1-23.1-13.1-42.8V341.3c0-13.1,2-23.9,5.9-32.2c3.9-8.3,10-14.3,18.3-18.2c8.3-3.8,18.9-5.7,31.8-5.7h241.3
		c14.5,0,25.4,3.2,32.4,9.7c7.1,6.4,10.7,14.9,10.7,25.4c0,10.7-3.6,19.2-10.7,25.7c-7.1,6.4-17.9,9.7-32.4,9.7H297.4v110.8h189.6
		c14,0,24.4,3.1,31.2,9.4c6.9,6.3,10.3,14.5,10.3,24.8c0,10.3-3.4,18.6-10.2,25.1c-6.8,6.5-17.2,9.7-31.4,9.7H297.4v128.3h213
		c14.4,0,25.2,3.3,32.5,10c7.3,6.7,10.9,15.5,10.9,26.6C553.7,711.2,550.1,719.8,542.8,726.5z M800.8,739.7
		c-5.4,2.6-10.8,3.6-16.1,3.6c-37.2,0-72-53.6-72-53.6s-83.5-104.6-111.7-140.2c-22.5-28.4-38.5-64.5-8.5-101.4l116.9-143.9
		c8.6-9,16-15.7,22-20c6-4.3,14.1-6.5,24.1-6.5c13.1,0,23.7,3.9,31.8,11.5c8.1,7.7,12.2,17.1,12.2,28.2c0,13.3-6.9,26.6-20.6,39.7
		L664,488.2l131.7,157.5C814.2,671.6,842.8,719.7,800.8,739.7z"/>
</g>
</svg>
