<?xml version="1.0" encoding="utf-8"?>
<!-- Generator: Adobe Illustrator 23.0.3, SVG Export Plug-In . SVG Version: 6.00 Build 0)  -->
<svg version="1.1" id="Layer_1" xmlns="http://www.w3.org/2000/svg" xmlns:xlink="http://www.w3.org/1999/xlink" x="0px" y="0px"
	 viewBox="0 0 1200 476" style="enable-background:new 0 0 1200 476;" xml:space="preserve">
<style type="text/css">
	.st0{fill:#4723AB;}
</style>
<g>
	<g>
		<path class="st0" d="M509.4,191.4h-61.8v33.3h56.9c4.2,0,7.3,0.9,9.4,2.8c2.1,1.9,3.1,4.4,3.1,7.4c0,3.1-1,5.6-3.1,7.5
			c-2,1.9-5.2,2.9-9.4,2.9h-56.9v38.5h64c4.3,0,7.6,1,9.7,3c2.2,2,3.3,4.7,3.3,8c0,3.2-1.1,5.8-3.3,7.8c-2.2,2-5.4,3-9.7,3h-74.6
			c-6,0-10.3-1.3-12.9-4c-2.6-2.6-3.9-6.9-3.9-12.8V187.1c0-3.9,0.6-7.2,1.8-9.7c1.2-2.5,3-4.3,5.5-5.5c2.5-1.1,5.7-1.7,9.6-1.7
			h72.5c4.4,0,7.6,1,9.7,2.9c2.1,1.9,3.2,4.5,3.2,7.6c0,3.2-1.1,5.8-3.2,7.7S513.7,191.4,509.4,191.4"/>
		<path class="st0" d="M586.3,184.4l52.8,79.8v-80.6c0-5.2,1.1-9.2,3.4-11.8c2.2-2.6,5.3-3.9,9.1-3.9c3.9,0,7.1,1.3,9.3,3.9
			c2.3,2.6,3.4,6.5,3.4,11.8v106.6c0,11.9-4.9,17.8-14.8,17.8c-2.5,0-4.7-0.4-6.7-1.1c-2-0.7-3.8-1.8-5.5-3.4
			c-1.7-1.5-3.3-3.3-4.8-5.4c-1.5-2.1-3-4.2-4.4-6.3L576.6,213v79.4c0,5.2-1.2,9.1-3.6,11.7c-2.4,2.6-5.5,4-9.2,4
			c-3.9,0-7-1.3-9.3-4c-2.3-2.7-3.5-6.6-3.5-11.7V187.8c0-4.4,0.5-7.9,1.5-10.4c1.2-2.8,3.1-5,5.8-6.8c2.7-1.8,5.6-2.6,8.8-2.6
			c2.5,0,4.6,0.4,6.3,1.2c1.8,0.8,3.3,1.9,4.6,3.2c1.3,1.4,2.7,3.1,4.1,5.3C583.4,179.8,584.8,182.1,586.3,184.4"/>
		<path class="st0" d="M729.5,184.6v47.5l53.9-56.2c2.6-2.7,4.8-4.7,6.6-6s4.2-1.9,7.3-1.9c3.9,0,7.1,1.2,9.6,3.5
			c2.4,2.3,3.7,5.1,3.7,8.5c0,4-2.1,8-6.2,11.9l-33.4,31.6l38.5,55.1c2.7,3.8,4.7,7.2,6.1,10c1.4,2.9,2,5.7,2,8.4
			c0,3-1.2,5.6-3.6,7.9c-2.4,2.2-5.6,3.3-9.7,3.3c-3.8,0-6.9-0.8-9.3-2.4c-2.4-1.6-4.4-3.8-6.1-6.5c-1.7-2.7-3.1-5.2-4.4-7.4
			L752,241.8l-22.5,21.5v28c0,5.7-1.3,9.9-3.9,12.6c-2.6,2.7-5.9,4.1-10,4.1c-2.3,0-4.6-0.6-6.7-1.8c-2.2-1.2-3.8-2.9-5-5
			c-0.9-1.7-1.4-3.7-1.6-6c-0.2-2.3-0.3-5.6-0.3-9.9V184.6c0-5.5,1.2-9.7,3.6-12.5c2.4-2.8,5.7-4.2,9.9-4.2c4.1,0,7.5,1.4,10,4.1
			C728.2,174.8,729.5,179,729.5,184.6"/>
		<path class="st0" d="M936.9,191.4h-61.8v33.3H932c4.2,0,7.3,0.9,9.4,2.8c2.1,1.9,3.1,4.4,3.1,7.4c0,3.1-1,5.6-3,7.5
			c-2,1.9-5.2,2.9-9.4,2.9h-56.9v38.5h64c4.3,0,7.6,1,9.7,3c2.2,2,3.3,4.7,3.3,8c0,3.2-1.1,5.8-3.3,7.8c-2.2,2-5.4,3-9.7,3h-74.6
			c-6,0-10.3-1.3-12.9-4c-2.6-2.6-3.9-6.9-3.9-12.8V187.1c0-3.9,0.6-7.2,1.8-9.7c1.2-2.5,3-4.3,5.5-5.5c2.5-1.1,5.7-1.7,9.6-1.7
			h72.5c4.4,0,7.6,1,9.7,2.9c2.1,1.9,3.2,4.5,3.2,7.6c0,3.2-1.1,5.8-3.2,7.7C944.6,190.5,941.3,191.4,936.9,191.4"/>
		<path class="st0" d="M1015.9,184.6v98.6h55.6c4.4,0,7.8,1.1,10.2,3.2c2.4,2.2,3.6,4.9,3.6,8.1c0,3.3-1.2,6-3.5,8.1
			c-2.3,2.1-5.8,3.1-10.3,3.1h-66.3c-6,0-10.3-1.3-12.9-4c-2.6-2.6-3.9-6.9-3.9-12.8V184.6c0-5.5,1.2-9.7,3.7-12.5
			c2.5-2.8,5.8-4.2,9.8-4.2c4.1,0,7.5,1.4,10,4.1C1014.7,174.8,1015.9,179,1015.9,184.6"/>
	</g>
	<g>
		<path class="st0" d="M232.8,115.8c-67.5,0-122.2,54.7-122.2,122.2c0,67.5,54.7,122.2,122.2,122.2c67.5,0,122.2-54.7,122.2-122.2
			C355,170.5,300.3,115.8,232.8,115.8 M299.1,294.2c-9,0-17.5-13-17.5-13s-20.3-25.4-27.2-34.1c-5.5-6.9-9.4-15.7-2.1-24.6l28.4-35
			c2.1-2.2,3.9-3.8,5.3-4.9c1.5-1,3.4-1.6,5.9-1.6c3.2,0,5.8,0.9,7.7,2.8c2,1.9,3,4.1,3,6.8c0,3.2-1.7,6.5-5,9.6l-27.9,31.9l32,38.3
			c4.5,6.3,11.4,18,1.2,22.8C301.7,293.9,300.4,294.2,299.1,294.2 M172.1,292.5c-4.8,0-8.3-1.1-10.4-3.2c-2.1-2.1-3.2-5.6-3.2-10.4
			v-82.4c0-3.2,0.5-5.8,1.4-7.8c0.9-2,2.4-3.5,4.4-4.4c2-0.9,4.6-1.4,7.7-1.4h58.6c3.5,0,6.2,0.8,7.9,2.4c1.7,1.6,2.6,3.6,2.6,6.2
			c0,2.6-0.9,4.7-2.6,6.3c-1.7,1.6-4.4,2.4-7.9,2.4h-50V227h46.1c3.4,0,5.9,0.8,7.6,2.3c1.7,1.5,2.5,3.5,2.5,6s-0.8,4.5-2.5,6.1
			c-1.6,1.6-4.2,2.4-7.6,2.4h-46.1v31.2h51.7c3.5,0,6.1,0.8,7.9,2.4c1.8,1.6,2.7,3.8,2.7,6.5c0,2.6-0.9,4.7-2.7,6.3
			c-1.8,1.6-4.4,2.4-7.9,2.4H172.1z"/>
	</g>
</g>
</svg>
