<?xml version="1.0" encoding="UTF-8" standalone="no"?><!DOCTYPE svg PUBLIC "-//W3C//DTD SVG 1.1//EN" "http://www.w3.org/Graphics/SVG/1.1/DTD/svg11.dtd"><svg width="100%" height="100%" viewBox="0 0 131 130" version="1.1" xmlns="http://www.w3.org/2000/svg" xmlns:xlink="http://www.w3.org/1999/xlink" xml:space="preserve" xmlns:serif="http://www.serif.com/" style="fill-rule:evenodd;clip-rule:evenodd;stroke-linecap:round;stroke-linejoin:round;stroke-miterlimit:10;"><g transform="matrix(1,0,0,1,-1004.84,-926.424)"><g><g transform="matrix(-1,0,0,1,2140.17,-328.272)"><rect x="1046.26" y="1256.2" width="47.659" height="65.88" style="fill:none;stroke:rgb(36,0,92);stroke-width:3px;"/></g><g transform="matrix(-1,0,0,1,2140.17,-369.143)"><rect x="1052.94" y="1303.76" width="34.285" height="11.625" style="fill:rgb(134,231,222);"/></g><g transform="matrix(1,0,0,1,1059.37,963.153)"><path d="M0,0L3.404,0" style="fill:none;fill-rule:nonzero;stroke:rgb(36,0,92);stroke-width:3px;"/></g><g transform="matrix(1,0,0,1,1068.38,963.153)"><path d="M0,0L3.404,0" style="fill:none;fill-rule:nonzero;stroke:rgb(36,0,92);stroke-width:3px;"/></g><g transform="matrix(1,0,0,1,1077.4,963.153)"><path d="M0,0L3.404,0" style="fill:none;fill-rule:nonzero;stroke:rgb(36,0,92);stroke-width:3px;"/></g><g transform="matrix(1,0,0,1,1059.37,971.132)"><path d="M0,0L3.404,0" style="fill:none;fill-rule:nonzero;stroke:rgb(36,0,92);stroke-width:3px;"/></g><g transform="matrix(1,0,0,1,1068.38,971.132)"><path d="M0,0L3.404,0" style="fill:none;fill-rule:nonzero;stroke:rgb(36,0,92);stroke-width:3px;"/></g><g transform="matrix(1,0,0,1,1077.4,971.132)"><path d="M0,0L3.404,0" style="fill:none;fill-rule:nonzero;stroke:rgb(36,0,92);stroke-width:3px;"/></g><g transform="matrix(1,0,0,1,1059.37,979.111)"><path d="M0,0L3.404,0" style="fill:none;fill-rule:nonzero;stroke:rgb(36,0,92);stroke-width:3px;"/></g><g transform="matrix(1,0,0,1,1068.38,979.111)"><path d="M0,0L3.404,0" style="fill:none;fill-rule:nonzero;stroke:rgb(36,0,92);stroke-width:3px;"/></g><g transform="matrix(1,0,0,1,1077.4,979.111)"><path d="M0,0L3.404,0" style="fill:none;fill-rule:nonzero;stroke:rgb(36,0,92);stroke-width:3px;"/></g><g transform="matrix(0,1,1,0,1099.95,975.428)"><path d="M24.376,-29.864L67.501,-29.864C67.501,-29.864 52.219,-12.404 52.564,24.376L-12.879,18.851C-13.261,11.661 -12.777,5.392 -11.759,-0.035" style="fill:none;fill-rule:nonzero;stroke:rgb(36,0,92);stroke-width:3px;"/></g><g transform="matrix(1,0,0,1,1070.09,962.167)"><path d="M0,80.762C0,80.762 -17.46,65.48 -54.24,65.825L-48.715,0.382C-41.524,0 -35.256,0.484 -29.829,1.502" style="fill:none;fill-rule:nonzero;stroke:rgb(36,0,92);stroke-width:3px;"/></g><g transform="matrix(1,0,0,1,1119.53,1056.31)"><path d="M0,-85.669C1.017,-86.192 2.964,-86.415 4.794,-86.501C7.178,-86.613 9.215,-84.796 9.414,-82.419L14.282,-24.153C14.518,-21.328 12.098,-19.002 9.286,-19.361C1.425,-20.366 -14.394,-20.646 -34.959,-12.087C-34.959,-12.087 -35.154,-11.461 -35.623,-10.495C-41.179,0.944 -57.709,0.944 -63.265,-10.495C-63.734,-11.461 -63.928,-12.087 -63.928,-12.087C-84.494,-20.646 -100.313,-20.366 -108.174,-19.361C-110.986,-19.002 -113.406,-21.328 -113.169,-24.153L-108.302,-82.419C-108.103,-84.796 -106.066,-86.613 -103.682,-86.501C-101.852,-86.415 -99.904,-86.192 -98.888,-85.669" style="fill:none;fill-rule:nonzero;stroke:rgb(36,0,92);stroke-width:3px;"/></g></g></g></svg>